<?xml version="1.0" standalone="no"?>
<!DOCTYPE svg PUBLIC "-//W3C//DTD SVG 20010904//EN"
 "http://www.w3.org/TR/2001/REC-SVG-20010904/DTD/svg10.dtd">
<svg version="1.0" xmlns="http://www.w3.org/2000/svg"
 width="300.000000pt" height="188.000000pt" viewBox="0 0 300.000000 188.000000"
 preserveAspectRatio="xMidYMid meet">
<metadata>
Created by potrace 1.10, written by Peter Selinger 2001-2011
</metadata>
<g transform="translate(0.000000,188.000000) scale(0.100000,-0.100000)"
fill="#000000" stroke="none">
<path d="M1360 1494 c-182 -48 -336 -189 -396 -363 -27 -79 -41 -171 -26 -171
23 0 40 30 36 62 -3 25 -2 28 5 13 5 -11 7 -23 4 -27 -2 -5 1 -8 6 -8 6 0 11
7 11 16 0 9 14 32 31 51 16 19 27 38 24 41 -3 4 -10 0 -15 -8 -7 -11 -10 -11
-10 -2 0 7 7 15 15 18 8 4 15 16 15 28 0 17 -2 18 -10 6 -5 -8 -10 -10 -11 -5
0 6 -7 -3 -14 -20 -8 -16 -14 -25 -15 -18 0 7 -8 10 -17 7 -12 -4 -11 -1 3 8
13 8 20 21 18 33 -2 11 4 26 13 32 9 7 14 16 10 19 -9 10 26 56 97 127 101
101 216 147 367 147 132 0 266 -50 351 -131 l40 -38 -23 -30 c-17 -24 -26 -28
-40 -21 -27 15 -46 12 -68 -11 -15 -16 -26 -20 -46 -15 -17 4 -33 2 -42 -6
-19 -15 -23 -15 -34 4 -7 10 -9 9 -9 -5 0 -10 11 -29 26 -43 14 -14 23 -31 21
-37 -8 -24 -77 100 -80 145 -1 9 -5 14 -9 12 -13 -9 -28 32 -16 44 9 9 9 12 0
12 -7 0 -12 -5 -12 -11 0 -8 -5 -8 -15 1 -18 15 -20 34 -2 24 9 -5 9 -3 -1 7
-7 8 -17 15 -22 15 -6 1 -15 2 -21 3 -5 0 -8 4 -6 9 3 4 -15 7 -38 7 -24 0
-40 -2 -34 -6 11 -6 -37 -33 -61 -34 -8 0 -15 -5 -15 -10 0 -15 -15 -35 -26
-35 -6 0 -7 5 -3 11 3 6 -6 3 -21 -7 -15 -9 -41 -19 -58 -21 -17 -2 -35 -7
-41 -13 -13 -13 65 -2 81 12 7 6 16 8 20 5 3 -4 -16 -16 -42 -28 -37 -17 -53
-19 -66 -11 -13 8 -20 8 -28 -2 -6 -7 -7 -17 -3 -21 4 -5 -2 -5 -13 -1 -11 4
-16 4 -12 0 8 -8 -11 -34 -25 -34 -5 0 -6 5 -2 12 4 7 3 8 -5 4 -6 -4 -9 -11
-6 -16 3 -5 1 -11 -4 -15 -17 -10 -25 -93 -11 -110 16 -19 44 -19 60 0 15 18
-1 20 -18 3 -6 -6 -15 -8 -19 -3 -5 4 -2 10 5 12 7 3 25 16 40 30 29 27 13 21
-30 -11 -15 -11 -30 -17 -33 -14 -3 3 13 20 37 37 23 17 38 31 34 31 -4 0 -21
-9 -38 -21 -16 -12 -32 -18 -36 -14 -4 3 0 10 9 15 9 5 27 19 40 31 l24 21
-28 -17 c-33 -19 -50 -12 -22 9 31 22 98 55 127 60 14 4 47 22 72 41 53 40 68
45 40 13 -14 -16 -9 -14 19 7 21 16 59 35 85 42 l47 13 -50 -5 c-55 -6 -53 10
3 21 29 6 37 2 72 -35 42 -44 94 -136 85 -150 -2 -5 2 -14 11 -21 33 -28 102
-152 75 -135 -17 10 -13 -11 4 -25 14 -12 14 -15 -1 -31 -22 -24 -35 -24 -57
2 -10 11 -21 18 -25 14 -3 -3 -2 -9 4 -13 6 -4 16 -17 22 -28 11 -20 8 -22
-41 -29 -29 -4 -65 -7 -82 -7 -39 0 -165 7 -165 8 0 3 180 94 185 94 2 0 -7
-11 -20 -25 -14 -13 -25 -29 -25 -35 0 -6 20 12 45 40 25 28 45 58 45 68 0 15
-2 15 -10 2 -9 -13 -13 -11 -29 10 -11 13 -19 27 -19 30 1 3 -5 19 -12 35 -16
36 -20 145 -6 163 7 10 1 9 -25 -2 -19 -9 -53 -20 -76 -26 -23 -6 -45 -15 -48
-20 -3 -5 7 -5 25 0 18 5 30 5 30 -1 0 -5 -8 -9 -19 -9 -10 0 -24 -7 -31 -15
-8 -9 -21 -13 -35 -9 -16 4 -30 -1 -44 -15 -12 -12 -28 -21 -36 -21 -13 0 -21
-30 -16 -62 0 -4 -13 -16 -29 -28 -17 -12 -30 -17 -30 -11 0 5 10 17 22 25 12
9 18 16 12 16 -20 0 -53 -31 -48 -45 11 -27 36 -16 93 43 61 62 112 95 174
111 36 9 37 9 37 -19 0 -16 18 -62 40 -103 l39 -75 -91 -47 c-101 -51 -119
-54 -228 -35 -51 9 -95 10 -135 4 l-60 -8 105 -7 c58 -4 150 -19 205 -33 109
-28 168 -32 212 -15 15 7 62 13 103 14 77 2 241 34 278 54 14 7 19 17 16 29
-5 13 -4 14 4 4 8 -12 14 -11 38 3 l29 16 -26 -5 c-22 -5 -28 -2 -33 19 -8 33
-39 48 -90 43 -36 -4 -51 2 -129 54 -80 52 -86 58 -63 64 19 4 39 -4 90 -41
36 -26 68 -51 72 -56 3 -5 17 -9 32 -9 25 1 22 5 -41 63 -37 35 -65 66 -61 70
21 21 53 0 117 -74 38 -43 75 -79 83 -79 9 0 13 -4 10 -8 -7 -12 10 -35 22
-31 6 2 -21 50 -59 107 -68 100 -76 122 -40 122 12 0 35 -35 77 -115 70 -136
96 -153 53 -34 -43 118 -55 137 -133 215 -111 111 -243 165 -401 163 -44 0
-105 -7 -135 -15z m373 -366 c9 0 17 -5 17 -13 0 -18 30 -27 106 -29 38 -1 69
-8 77 -15 10 -11 9 -13 -3 -9 -20 6 -48 -21 -43 -41 3 -13 -4 -17 -40 -17 -42
-1 -44 0 -43 27 1 36 9 37 25 3 6 -15 14 -24 17 -22 7 8 -30 68 -42 68 -6 0
-28 -11 -48 -25 -33 -23 -37 -23 -42 -7 -3 9 -12 32 -20 50 -18 42 -18 46 4
37 9 -4 25 -7 35 -7z m57 -130 c0 -5 -7 -8 -16 -8 -9 0 -12 -5 -8 -12 4 -7 3
-8 -4 -4 -7 4 -12 14 -12 22 0 8 -5 14 -11 14 -5 0 -8 4 -5 9 7 10 56 -9 56
-21z m-50 -20 c0 -17 -3 -19 -9 -9 -7 11 -11 10 -20 -5 -8 -15 -11 -15 -11 -4
-1 10 -4 9 -10 -5 -7 -16 -9 -17 -9 -3 -1 20 25 48 45 48 8 0 14 -10 14 -22z"/>
<path d="M1640 1108 c12 -21 26 -38 31 -38 17 0 9 16 -22 46 l-31 29 22 -37z"/>
<path d="M1390 1082 c0 -9 47 -22 79 -22 14 1 14 2 1 9 -25 15 -80 23 -80 13z"/>
<path d="M1250 1062 c0 -5 23 -12 51 -16 29 -4 66 -9 83 -12 23 -4 27 -3 16 4
-8 6 -37 14 -65 17 -27 4 -58 9 -67 11 -10 3 -18 1 -18 -4z"/>
<path d="M2035 1000 c-38 -25 -136 -130 -121 -130 6 0 56 7 111 15 55 8 108
15 118 15 15 0 17 -13 17 -143 l0 -144 -122 18 c-68 10 -176 21 -241 25 -65 4
-120 12 -124 17 -6 10 47 8 247 -9 55 -4 62 -3 49 8 -23 19 -22 174 2 174 9 0
16 -11 17 -29 1 -15 9 -43 17 -60 15 -32 15 -32 11 26 -4 48 -2 57 12 57 15 0
17 -12 17 -85 0 -71 -3 -85 -16 -85 -10 0 -21 16 -29 41 -17 50 -32 62 -23 17
4 -18 7 -43 7 -54 0 -19 7 -22 58 -28 32 -3 70 -9 83 -12 25 -6 25 -6 25 64 0
48 -4 74 -13 79 -8 4 -16 16 -20 26 -12 33 -24 17 -31 -43 -7 -61 -3 -80 16
-80 6 0 8 16 5 40 -5 43 -3 46 16 29 7 -7 11 -28 9 -50 -3 -32 -8 -39 -26 -39
-12 0 -27 5 -34 12 -15 15 -16 119 0 153 16 35 51 34 64 -2 10 -27 11 -26 12
15 1 39 -1 42 -26 42 -22 0 -24 -2 -12 -11 11 -7 1 -8 -35 -4 -37 4 -45 3 -30
-5 14 -7 2 -8 -42 -3 -35 3 -63 2 -63 -3 0 -12 -197 -19 -490 -18 -221 2 -336
10 -552 40 l-48 7 0 -126 0 -126 38 5 c20 3 62 10 92 16 30 5 93 12 140 15 47
3 86 6 88 8 2 1 -7 20 -20 40 -22 38 -39 34 -19 -3 11 -20 6 -32 -14 -32 -7 0
-12 16 -13 38 -1 20 -4 49 -7 64 -9 41 26 26 47 -20 l18 -37 -5 41 c-4 37 -3
40 17 39 22 -2 39 -25 19 -25 -15 0 -14 -40 2 -74 l12 -28 92 4 c51 2 95 7 98
10 4 3 -1 27 -9 52 -20 57 -20 53 4 59 16 4 20 1 19 -16 -1 -12 -1 -31 0 -42
1 -17 3 -18 11 -5 5 8 10 25 10 38 0 15 6 22 20 22 15 0 20 -7 20 -29 0 -17 5
-33 10 -36 10 -6 15 20 12 58 -1 11 5 17 18 17 22 0 25 -12 10 -40 -6 -10 -11
-30 -12 -44 -2 -20 -8 -26 -25 -26 -13 0 -22 3 -22 8 4 21 -2 42 -12 42 -7 0
-9 -10 -7 -25 4 -17 1 -25 -9 -25 -8 0 -21 -7 -29 -15 -9 -8 -27 -15 -42 -15
-113 0 -485 -39 -544 -56 -17 -5 -18 6 -18 140 0 110 3 146 13 146 6 0 59 -7
117 -15 138 -19 153 -19 116 1 -22 13 -26 18 -15 25 9 6 -36 8 -118 7 l-133
-3 0 -157 c0 -131 2 -158 14 -158 8 0 75 9 148 19 240 34 277 36 303 11 13
-12 29 -20 36 -19 8 1 28 -4 44 -11 44 -19 150 -26 140 -10 -6 9 -4 11 4 6 7
-5 18 -1 25 9 10 14 16 15 34 6 25 -13 66 -6 83 15 6 8 16 11 22 7 6 -4 7 -1
2 7 -11 17 154 7 343 -20 73 -11 140 -20 148 -20 12 0 14 27 14 161 l0 161
-25 -6 c-22 -6 -25 -2 -31 31 -14 77 -34 89 -89 53z m43 -52 c-2 -18 -11 -24
-38 -26 l-35 -4 24 26 c31 32 54 34 49 4z m-1171 -136 c0 -27 4 -60 8 -73 7
-21 9 -18 21 26 7 28 11 58 8 68 -4 13 1 17 21 17 22 0 26 -4 22 -19 -3 -11 0
-41 6 -68 l10 -48 14 45 c7 24 10 52 7 62 -4 14 0 18 20 18 20 0 26 -5 26 -22
0 -12 -3 -18 -7 -14 -10 10 -33 -85 -26 -111 5 -20 1 -23 -27 -23 -23 0 -31 4
-27 14 3 8 0 33 -8 57 l-13 44 -7 -38 c-4 -20 -5 -46 -2 -56 3 -14 -2 -21 -20
-26 -14 -3 -26 -5 -27 -3 -1 2 -8 35 -15 73 -7 39 -15 82 -17 98 -5 22 -2 27
13 27 16 0 19 -8 20 -48z m971 -3 c-6 -17 -8 -53 -6 -80 4 -42 3 -49 -13 -49
-14 0 -16 7 -12 43 3 31 2 38 -6 27 -6 -8 -11 -24 -11 -35 -1 -15 -5 -12 -21
15 -17 30 -19 31 -16 10 3 -14 8 -33 12 -42 5 -13 2 -15 -14 -11 -19 5 -21 13
-21 69 0 50 3 64 15 64 8 0 15 -4 15 -9 0 -5 5 -22 11 -38 l10 -27 19 41 c10
22 24 43 31 46 8 3 15 6 16 6 1 1 -3 -13 -9 -30z m58 5 c-3 -9 -6 -42 -6 -75
0 -46 -3 -59 -15 -59 -13 0 -15 14 -14 75 1 68 3 75 21 75 14 0 18 -5 14 -16z
m-549 -9 c9 -24 -7 -32 -22 -11 -16 21 -45 15 -45 -9 0 -9 9 -15 24 -15 51 0
62 -58 12 -71 -31 -9 -66 7 -66 30 0 11 5 10 25 -3 32 -21 45 -20 45 3 0 14
-8 21 -26 23 -35 4 -53 31 -35 52 18 21 80 21 88 1z m298 -46 c6 -8 13 -1 24
21 26 54 36 46 36 -25 0 -53 -3 -65 -15 -63 -10 2 -14 14 -13 38 l2 35 -13
-29 -13 -30 -16 30 c-9 16 -16 23 -17 16 0 -7 5 -23 11 -34 14 -26 -1 -37 -39
-31 -16 3 -22 1 -15 -4 14 -10 21 -47 8 -48 -5 0 -16 -4 -23 -9 -19 -12 -25
-1 -13 22 14 26 14 45 1 37 -6 -4 -7 -11 -4 -17 4 -6 2 -8 -3 -5 -6 4 -10 -1
-9 -11 1 -22 -37 -28 -54 -7 -7 8 -17 15 -22 15 -6 0 -5 -7 2 -15 17 -21 -1
-41 -45 -48 -48 -8 -90 8 -92 34 -1 12 0 19 3 16 3 -3 21 1 39 9 19 8 51 14
72 14 22 0 33 4 26 8 -8 5 1 8 22 8 19 0 35 -4 35 -8 0 -4 -12 -8 -26 -8 -14
0 -23 -4 -19 -10 3 -5 13 -7 23 -4 14 5 15 4 2 -5 -12 -9 -11 -11 8 -11 14 0
21 4 17 11 -4 5 1 19 10 29 12 13 16 33 14 72 -3 44 0 53 15 56 14 3 17 0 11
-18 -8 -27 2 -90 15 -90 6 0 10 24 10 54 0 57 20 82 31 40 4 -12 10 -28 14
-35z m-572 1 c-4 -33 -2 -55 7 -65 10 -13 9 -15 -9 -15 -18 0 -21 6 -21 43 0
23 -3 52 -6 65 -5 18 -2 22 14 22 19 0 21 -4 15 -50z"/>
<path d="M1440 653 c-30 -9 -60 -27 -60 -34 0 -3 8 -9 19 -12 14 -3 17 0 14
14 -3 11 0 19 6 19 6 0 11 -10 12 -22 1 -23 1 -23 8 1 3 13 15 28 26 32 22 8
0 11 -25 2z"/>
<path d="M1169 928 c23 -6 37 -6 44 1 8 8 -2 11 -33 10 l-45 -1 34 -10z"/>
<path d="M1526 894 c-26 -7 -51 -16 -55 -20 -3 -3 3 -4 14 -1 11 3 37 9 58 13
20 3 37 10 37 15 0 5 -1 8 -2 8 -2 -1 -25 -7 -52 -15z"/>
<path d="M1757 885 c-20 -14 -37 -27 -37 -28 0 -4 134 5 138 8 2 2 -1 13 -8
24 -14 28 -47 26 -93 -4z"/>
<path d="M1384 884 c26 -9 50 -13 53 -10 6 5 -65 26 -87 25 -8 0 7 -7 34 -15z"/>
<path d="M1593 865 c0 -10 10 -15 31 -15 l31 1 -25 14 c-32 18 -37 18 -37 0z"/>
<path d="M1233 617 c3 -10 77 -40 83 -34 2 2 -17 13 -42 24 -25 12 -43 16 -41
10z"/>
<path d="M1048 593 c44 -60 182 -170 182 -144 0 6 -5 13 -10 16 -6 4 -7 12 -3
18 4 7 6 21 4 32 -2 16 0 17 9 8 7 -6 13 -30 13 -51 0 -32 4 -42 22 -50 l23
-11 -18 60 c-10 32 -16 67 -13 77 4 16 0 18 -24 15 -22 -4 -28 -10 -30 -30 -3
-54 -20 -50 -85 20 -64 68 -109 94 -70 40z"/>
<path d="M1867 540 c-42 -44 -79 -80 -82 -80 -14 0 -2 42 15 52 25 16 26 28 1
28 -10 0 -22 -7 -25 -16 -3 -8 -10 -12 -16 -9 -6 4 -8 11 -5 16 4 5 -3 9 -14
9 -26 0 -27 -12 -2 -34 21 -20 18 -47 -9 -71 -18 -16 -19 -15 -26 19 -3 20 -4
47 -2 61 7 35 -19 33 -33 -2 l-11 -28 -10 28 c-18 51 -33 31 -32 -43 1 -38 -2
-70 -7 -70 -5 0 -9 7 -9 16 0 11 -6 14 -20 9 -16 -5 -20 -2 -20 19 0 16 6 26
15 26 8 0 15 5 15 10 0 6 -7 10 -15 10 -8 0 -15 7 -15 15 0 8 9 15 20 15 11 0
20 5 20 10 0 6 -13 10 -30 10 l-29 0 1 -70 c1 -43 -3 -75 -10 -82 -7 -7 -12
-8 -13 -3 0 6 -1 42 -2 80 -2 69 -2 70 -30 73 l-28 3 1 -58 c2 -90 1 -101 -9
-83 -10 15 -26 107 -22 128 1 7 -9 12 -23 12 -16 0 -24 -5 -21 -12 3 -7 -1
-41 -8 -76 -14 -65 -13 -72 11 -72 11 0 13 8 8 35 -6 29 -4 35 10 35 13 0 16
-7 11 -34 -6 -40 2 -46 70 -46 175 0 374 95 464 221 41 58 -6 29 -84 -51z
m-365 -50 c1 -16 2 -37 2 -47 1 -9 -5 -18 -11 -20 -9 -3 -13 10 -13 46 0 54
19 72 22 21z m167 -20 c10 21 11 19 6 -20 -3 -24 -8 -46 -11 -49 -10 -10 -22
16 -27 59 -5 44 -4 44 8 15 l13 -30 11 25z"/>
<path d="M1638 586 c-60 -13 -93 -30 -42 -22 16 3 46 8 66 11 21 3 40 10 43
15 7 12 6 12 -67 -4z"/>
<path d="M1293 525 c-10 -29 4 -108 23 -122 27 -20 31 -17 32 28 1 24 -2 38
-8 34 -6 -3 -10 -13 -10 -21 0 -8 -4 -12 -10 -9 -5 3 -10 24 -10 46 0 21 5 39
10 39 6 0 10 -4 10 -10 0 -5 7 -10 16 -10 11 0 14 5 10 16 -3 9 -6 18 -6 20 0
12 -52 2 -57 -11z"/>
</g>
</svg>
